HIERARCHY
ROOT Hips
{
	OFFSET 0.000000 121.760803 0.000000
	CHANNELS 6 Xposition Yposition Zposition Xrotation Yrotation Zrotation 
	JOINT Spine
	{
		OFFSET 0.072000 7.257294 -0.789700
		CHANNELS 3 Xrotation Yrotation Zrotation
		JOINT Spine1
		{
			OFFSET 0.000000 12.508769 -0.658067
			CHANNELS 3 Xrotation Yrotation Zrotation
			JOINT Spine1_split
			{
				OFFSET 0.000000 12.508769 -0.658067
				CHANNELS 3 Xrotation Yrotation Zrotation
				JOINT Spine2
				{
					OFFSET 0.000000 12.508769 -0.658067
					CHANNELS 3 Xrotation Yrotation Zrotation
					JOINT Neck
					{
						OFFSET 0.000000 14.033295 7.520400
						CHANNELS 3 Xrotation Yrotation Zrotation
						JOINT Head
						{
							OFFSET 0.000000 8.198502 5.703100
							CHANNELS 3 Xrotation Yrotation Zrotation
							JOINT HeadTop_End
							{
								OFFSET 0.000000 17.760803 13.332701
								CHANNELS 3 Xrotation Yrotation Zrotation
								End Site
								{
									OFFSET 0.000000 0.000000 0.000000
								}
							}
						}
					}
					JOINT LeftShoulder
					{
						OFFSET 6.292450 5.785301 -0.669000
						CHANNELS 3 Xrotation Yrotation Zrotation
						JOINT LeftShoulder_split
						{
							OFFSET 6.292450 5.785301 -0.669000
							CHANNELS 3 Xrotation Yrotation Zrotation
							JOINT LeftArm
							{
								OFFSET 13.907140 -6.093903 1.965100
								CHANNELS 3 Xrotation Yrotation Zrotation
								JOINT LeftForeArm
								{
									OFFSET 34.140198 0.000000 0.000000
									CHANNELS 3 Xrotation Yrotation Zrotation
									JOINT LeftHand
									{
										OFFSET 40.960209 0.000000 0.000000
										CHANNELS 3 Xrotation Yrotation Zrotation
										JOINT LeftHandThumb1
										{
											OFFSET 10.006996 -7.170425 9.573125
											CHANNELS 3 Xrotation Yrotation Zrotation
											JOINT LeftHandThumb2
											{
												OFFSET 1.835007 -1.059448 1.059443
												CHANNELS 3 Xrotation Yrotation Zrotation
												JOINT LeftHandThumb3
												{
													OFFSET 2.112267 -1.219513 1.219518
													CHANNELS 3 Xrotation Yrotation Zrotation
													JOINT LeftHandThumb4
													{
														OFFSET 4.843811 -2.796570 2.796576
														CHANNELS 3 Xrotation Yrotation Zrotation
														End Site
														{
															OFFSET 0.000000 0.000000 0.000000
														}
													}
												}
											}
										}
										JOINT LeftHandIndex1
										{
											OFFSET 18.389847 -0.922348 4.596882
											CHANNELS 3 Xrotation Yrotation Zrotation
											JOINT LeftHandIndex2
											{
												OFFSET 4.711273 0.000000 0.000000
												CHANNELS 3 Xrotation Yrotation Zrotation
												JOINT LeftHandIndex3
												{
													OFFSET 2.886131 0.000000 0.000000
													CHANNELS 3 Xrotation Yrotation Zrotation
													JOINT LeftHandIndex4
													{
														OFFSET 6.145912 0.000000 0.000000
														CHANNELS 3 Xrotation Yrotation Zrotation
														End Site
														{
															OFFSET 0.000000 0.000000 0.000000
														}
													}
												}
											}
										}
										JOINT LeftHandMiddle1
										{
											OFFSET 18.013008 0.000000 0.000000
											CHANNELS 3 Xrotation Yrotation Zrotation
											JOINT LeftHandMiddle2
											{
												OFFSET 4.946693 0.000000 0.000000
												CHANNELS 3 Xrotation Yrotation Zrotation
												JOINT LeftHandMiddle3
												{
													OFFSET 3.342232 0.000000 0.000000
													CHANNELS 3 Xrotation Yrotation Zrotation
													JOINT LeftHandMiddle4
													{
														OFFSET 4.461754 0.000000 0.000000
														CHANNELS 3 Xrotation Yrotation Zrotation
														End Site
														{
															OFFSET 0.000000 0.000000 0.000000
														}
													}
												}
											}
										}
										JOINT LeftHandRing1
										{
											OFFSET 15.849892 -0.102921 -4.126150
											CHANNELS 3 Xrotation Yrotation Zrotation
											JOINT LeftHandRing2
											{
												OFFSET 3.527054 0.000000 0.000000
												CHANNELS 3 Xrotation Yrotation Zrotation
												JOINT LeftHandRing3
												{
													OFFSET 2.961098 0.000000 0.000000
													CHANNELS 3 Xrotation Yrotation Zrotation
													JOINT LeftHandRing4
													{
														OFFSET 4.927200 0.000000 0.000000
														CHANNELS 3 Xrotation Yrotation Zrotation
														End Site
														{
															OFFSET 0.000000 0.000000 0.000000
														}
													}
												}
											}
										}
										JOINT LeftHandPinky1
										{
											OFFSET 12.791824 -0.832031 -6.799156
											CHANNELS 3 Xrotation Yrotation Zrotation
											JOINT LeftHandPinky2
											{
												OFFSET 3.327133 0.000000 0.000000
												CHANNELS 3 Xrotation Yrotation Zrotation
												JOINT LeftHandPinky3
												{
													OFFSET 3.014900 0.000000 0.000000
													CHANNELS 3 Xrotation Yrotation Zrotation
													JOINT LeftHandPinky4
													{
														OFFSET 5.847786 0.000000 0.000000
														CHANNELS 3 Xrotation Yrotation Zrotation
														End Site
														{
															OFFSET 0.000000 0.000000 0.000000
														}
													}
												}
											}
										}
									}
								}
							}
						}
					}
					JOINT RightShoulder
					{
						OFFSET -6.292450 5.785301 -0.669000
						CHANNELS 3 Xrotation Yrotation Zrotation
						JOINT RightShoulder_split
						{
							OFFSET -6.292450 5.785301 -0.669000
							CHANNELS 3 Xrotation Yrotation Zrotation
							JOINT RightArm
							{
								OFFSET -13.907140 -6.093903 1.965100
								CHANNELS 3 Xrotation Yrotation Zrotation
								JOINT RightForeArm
								{
									OFFSET -34.140198 0.000000 0.000000
									CHANNELS 3 Xrotation Yrotation Zrotation
									JOINT RightHand
									{
										OFFSET -40.960209 0.000000 0.000000
										CHANNELS 3 Xrotation Yrotation Zrotation
										JOINT RightHandThumb1
										{
											OFFSET -10.007050 -7.170456 9.573117
											CHANNELS 3 Xrotation Yrotation Zrotation
											JOINT RightHandThumb2
											{
												OFFSET -1.835007 -1.059448 1.059443
												CHANNELS 3 Xrotation Yrotation Zrotation
												JOINT RightHandThumb3
												{
													OFFSET -2.112267 -1.219513 1.219518
													CHANNELS 3 Xrotation Yrotation Zrotation
													JOINT RightHandThumb4
													{
														OFFSET -4.843834 -2.796585 2.796590
														CHANNELS 3 Xrotation Yrotation Zrotation
														End Site
														{
															OFFSET 0.000000 0.000000 0.000000
														}
													}
												}
											}
										}
										JOINT RightHandIndex1
										{
											OFFSET -18.389870 -0.922424 4.596786
											CHANNELS 3 Xrotation Yrotation Zrotation
											JOINT RightHandIndex2
											{
												OFFSET -4.711273 0.000000 0.000000
												CHANNELS 3 Xrotation Yrotation Zrotation
												JOINT RightHandIndex3
												{
													OFFSET -2.886131 0.000000 0.000000
													CHANNELS 3 Xrotation Yrotation Zrotation
													JOINT RightHandIndex4
													{
														OFFSET -6.145920 0.000000 0.000000
														CHANNELS 3 Xrotation Yrotation Zrotation
														End Site
														{
															OFFSET 0.000000 0.000000 0.000000
														}
													}
												}
											}
										}
										JOINT RightHandMiddle1
										{
											OFFSET -18.013008 0.000000 0.000000
											CHANNELS 3 Xrotation Yrotation Zrotation
											JOINT RightHandMiddle2
											{
												OFFSET -4.946693 0.000000 0.000000
												CHANNELS 3 Xrotation Yrotation Zrotation
												JOINT RightHandMiddle3
												{
													OFFSET -3.342232 0.000000 0.000000
													CHANNELS 3 Xrotation Yrotation Zrotation
													JOINT RightHandMiddle4
													{
														OFFSET -4.461754 0.000000 0.000000
														CHANNELS 3 Xrotation Yrotation Zrotation
														End Site
														{
															OFFSET 0.000000 0.000000 0.000000
														}
													}
												}
											}
										}
										JOINT RightHandRing1
										{
											OFFSET -15.849876 -0.102936 -4.126237
											CHANNELS 3 Xrotation Yrotation Zrotation
											JOINT RightHandRing2
											{
												OFFSET -3.527054 0.000000 0.000000
												CHANNELS 3 Xrotation Yrotation Zrotation
												JOINT RightHandRing3
												{
													OFFSET -2.961098 0.000000 0.000000
													CHANNELS 3 Xrotation Yrotation Zrotation
													JOINT RightHandRing4
													{
														OFFSET -4.927200 0.000000 0.000000
														CHANNELS 3 Xrotation Yrotation Zrotation
														End Site
														{
															OFFSET 0.000000 0.000000 0.000000
														}
													}
												}
											}
										}
										JOINT RightHandPinky1
										{
											OFFSET -12.791786 -0.832077 -6.799222
											CHANNELS 3 Xrotation Yrotation Zrotation
											JOINT RightHandPinky2
											{
												OFFSET -3.327133 0.000000 0.000000
												CHANNELS 3 Xrotation Yrotation Zrotation
												JOINT RightHandPinky3
												{
													OFFSET -3.014900 0.000000 0.000000
													CHANNELS 3 Xrotation Yrotation Zrotation
													JOINT RightHandPinky4
													{
														OFFSET -5.847786 0.000000 0.000000
														CHANNELS 3 Xrotation Yrotation Zrotation
														End Site
														{
															OFFSET 0.000000 0.000000 0.000000
														}
													}
												}
											}
										}
									}
								}
							}
						}
					}
				}
			}
		}
	}
	JOINT LeftUpLeg
	{
		OFFSET 13.026900 -6.336304 -1.092800
		CHANNELS 3 Xrotation Yrotation Zrotation
		JOINT LeftLeg
		{
			OFFSET 0.524474 -46.096886 9.782700
			CHANNELS 3 Xrotation Yrotation Zrotation
			JOINT LeftFoot
			{
				OFFSET -0.524474 -53.427422 -12.948200
				CHANNELS 3 Xrotation Yrotation Zrotation
				JOINT LeftToeBase
				{
					OFFSET 0.192200 -14.009700 16.364100
					CHANNELS 3 Xrotation Yrotation Zrotation
					JOINT LeftToe_End
					{
						OFFSET -1.784700 -0.561700 9.474800
						CHANNELS 3 Xrotation Yrotation Zrotation
						End Site
						{
							OFFSET 0.000000 0.000000 0.000000
						}
					}
				}
			}
		}
	}
	JOINT RightUpLeg
	{
		OFFSET -12.883000 -6.336304 -1.092800
		CHANNELS 3 Xrotation Yrotation Zrotation
		JOINT RightLeg
		{
			OFFSET -0.524587 -46.096825 9.782800
			CHANNELS 3 Xrotation Yrotation Zrotation
			JOINT RightFoot
			{
				OFFSET 0.524587 -53.427383 -12.948300
				CHANNELS 3 Xrotation Yrotation Zrotation
				JOINT RightToeBase
				{
					OFFSET -0.192200 -14.009700 16.364100
					CHANNELS 3 Xrotation Yrotation Zrotation
					JOINT RightToe_End
					{
						OFFSET 1.784700 -0.561700 9.474800
						CHANNELS 3 Xrotation Yrotation Zrotation
						End Site
						{
							OFFSET 0.000000 0.000000 0.000000
						}
					}
				}
			}
		}
	}
}
MOTION
Frames: 4
Frame Time: 0.016667
-0.538392 107.944244 0.581031 -6.104422 -43.212722 -4.140818 5.825611 4.834105 -1.150361 11.835725 9.038091 -3.084132 0.000000 0.000000 0.000000 11.835727 9.038084 -3.084133 -4.303058 -1.272936 0.206308 -6.271931 20.437780 -0.377164 0.000000 0.000000 0.000000 1.387438 -0.696996 -7.876280 0.000000 0.000000 0.000000 -14.260092 2.393805 -63.277113 9.865045 -47.524893 5.927930 16.172822 0.916334 18.795297 9.163595 4.814123 -5.499026 -0.335369 0.032574 0.783656 -0.000002 -0.000010 -0.000018 -0.000001 0.000001 0.000000 -0.902033 -6.980916 -3.808435 0.026602 0.806438 -16.418907 -0.000003 -0.000000 0.000004 0.000000 -0.000002 0.000003 1.947560 9.681379 -14.539562 -0.461209 -1.564461 -21.881063 -0.000002 -0.000007 -0.000013 0.000004 0.000002 -0.000002 2.605821 14.896557 -31.345220 -0.570647 -2.704771 -32.012065 -0.000005 -0.000003 -0.000002 -0.000001 -0.000001 -0.000001 4.171031 18.494918 -34.987408 -0.706813 -5.788631 -39.372919 -0.000000 0.000001 -0.000000 -0.000000 -0.000001 0.000001 1.410924 9.461509 9.792747 0.000000 0.000000 0.000000 1.220054 -24.270714 60.532927 -6.660691 41.858398 8.043844 6.225273 12.322323 11.673294 -8.895793 -4.903188 -0.383714 7.903372 -19.189693 -2.856949 -0.000000 -0.000001 -0.000001 -0.000001 0.000000 -0.000000 -1.096334 -1.217223 4.525382 0.141701 -1.115733 16.942602 0.000000 -0.000002 -0.000004 0.000001 0.000001 -0.000000 -0.670812 -2.905545 12.731475 -0.652524 1.804269 30.579515 -0.000004 0.000000 0.000009 0.000000 -0.000002 -0.000001 2.418890 -7.406065 21.762689 -0.995461 3.769844 37.430618 -0.000000 -0.000000 0.000003 -0.000000 0.000001 -0.000003 3.482205 -10.050676 24.322239 -1.467014 7.868260 41.092877 -0.000003 -0.000006 0.000006 -0.000000 -0.000000 0.000001 -28.118808 5.790318 13.206273 32.819233 -13.430475 -0.043978 -2.035697 0.429828 -7.881459 -2.321962 -3.217396 0.803255 0.000000 -0.000000 -0.000000 -3.988445 -13.273898 -16.987394 31.800101 -8.637718 -0.389567 -19.544371 -4.350095 18.459027 -1.785102 -0.356713 0.333197 -0.000000 -0.000002 -0.000000 
-0.533168 107.933571 0.588623 -6.077563 -43.290927 -4.114869 5.820804 4.839133 -1.161601 11.826960 9.047792 -3.104680 0.000000 0.000000 0.000000 11.826960 9.047801 -3.104678 -4.348294 -1.296197 0.185085 -6.207247 20.521771 -0.394173 0.000000 -0.000000 -0.000000 1.387396 -0.696828 -7.876271 0.000000 0.000000 0.000000 -14.262259 2.393790 -63.250666 9.848951 -47.561035 5.920536 16.146002 0.904690 18.680735 9.281178 4.985914 -5.486658 -0.249598 0.224356 0.816305 -0.000004 -0.000006 -0.000023 -0.000001 -0.000000 -0.000000 -0.895024 -6.979115 -3.983058 0.019734 0.784224 -16.611459 -0.000001 0.000002 0.000006 0.000001 0.000001 0.000002 1.943562 9.666289 -14.728979 -0.467832 -1.583374 -22.065414 -0.000000 -0.000009 -0.000011 -0.000001 -0.000002 0.000001 2.597689 14.883722 -31.520295 -0.579613 -2.719016 -32.210489 -0.000004 -0.000002 -0.000004 -0.000003 -0.000000 -0.000000 4.160762 18.488400 -35.170478 -0.709430 -5.791681 -39.559281 0.000003 0.000003 0.000004 0.000003 0.000000 0.000002 1.398776 9.503310 9.802041 0.000000 0.000000 0.000000 1.235476 -24.253399 60.503598 -6.635587 41.828625 8.061793 6.205722 12.287859 11.583865 -8.744218 -4.912956 -0.267406 7.890834 -19.193895 -2.875752 0.000000 0.000002 0.000002 0.000000 0.000001 0.000001 -1.094932 -1.224541 4.426559 0.143561 -1.121787 16.879889 0.000003 -0.000002 -0.000004 0.000001 -0.000001 -0.000001 -0.667437 -2.920387 12.633019 -0.649450 1.799059 30.481871 -0.000004 -0.000000 0.000008 -0.000001 0.000002 0.000001 2.423717 -7.418807 21.676007 -0.988830 3.761188 37.329381 -0.000001 -0.000001 -0.000001 -0.000000 -0.000000 -0.000000 3.489135 -10.065736 24.227637 -1.459268 7.863635 40.993621 -0.000000 -0.000003 0.000008 -0.000001 -0.000000 -0.000001 -28.122047 5.787049 13.199474 32.848531 -13.347749 -0.018972 -2.071774 0.438309 -7.920468 -2.321970 -3.217402 0.803263 0.000000 -0.000001 0.000000 -4.073612 -13.272459 -16.989226 31.830246 -8.565121 -0.448893 -19.545290 -4.350793 18.461646 -1.785098 -0.356733 0.333195 -0.000000 0.000001 0.000000 
-0.531462 107.943993 0.585228 -6.047340 -43.357132 -4.077749 5.817317 4.835816 -1.173045 11.819977 9.041246 -3.121167 0.000000 0.000000 0.000000 11.819974 9.041248 -3.121166 -4.387860 -1.297856 0.163179 -6.136320 20.653464 -0.443797 -0.000000 -0.000000 -0.000000 1.389709 -0.709915 -7.876827 0.000000 0.000000 0.000000 -14.244243 2.394031 -63.227232 9.904593 -47.573135 5.947265 16.178280 0.914622 18.773758 9.414853 5.159749 -5.469210 -0.170201 0.412537 0.856121 -0.000003 -0.000004 -0.000025 0.000000 -0.000002 -0.000000 -0.885474 -6.977769 -4.153058 0.012759 0.761535 -16.807786 0.000002 -0.000000 0.000006 -0.000001 0.000000 0.000000 1.939555 9.651396 -14.916300 -0.474092 -1.601150 -22.238811 -0.000003 -0.000009 -0.000012 -0.000002 -0.000000 0.000001 2.589842 14.871396 -31.688844 -0.588508 -2.733070 -32.406037 -0.000005 -0.000004 -0.000003 -0.000003 0.000001 0.000003 4.151076 18.482372 -35.342636 -0.711823 -5.794506 -39.734554 0.000006 0.000002 -0.000000 0.000006 0.000002 0.000001 1.393254 9.523887 9.813709 0.000000 0.000000 0.000000 1.197319 -24.211982 60.500696 -6.605028 41.712693 8.037637 6.258863 12.244943 11.498253 -8.538366 -4.895331 -0.106994 7.856108 -19.205498 -2.927848 0.000003 0.000003 -0.000000 0.000001 0.000001 -0.000000 -1.093475 -1.232166 4.323065 0.143918 -1.122953 16.867311 0.000000 -0.000002 -0.000005 -0.000002 0.000001 -0.000000 -0.663458 -2.937938 12.524955 -0.646095 1.793339 30.374538 -0.000005 0.000002 0.000006 -0.000000 0.000001 0.000001 2.430979 -7.439404 21.599232 -0.980320 3.750012 37.198931 -0.000002 -0.000000 -0.000001 -0.000001 -0.000000 -0.000003 3.495814 -10.078045 24.121595 -1.450820 7.858618 40.884628 -0.000003 -0.000008 0.000006 -0.000001 -0.000002 -0.000000 -28.105851 5.785069 13.178951 32.819353 -13.267494 0.009340 -2.075307 0.441899 -7.971168 -2.321965 -3.217364 0.803256 0.000000 0.000002 0.000000 -4.133951 -13.262802 -16.983096 31.820468 -8.531296 -0.509277 -19.533221 -4.346737 18.463287 -1.785090 -0.356750 0.333201 -0.000000 0.000002 0.000000 
-0.526541 107.942131 0.587765 -5.996911 -43.429666 -4.030310 5.812106 4.828306 -1.181274 11.809251 9.026347 -3.132223 0.000000 0.000000 0.000000 11.809250 9.026343 -3.132226 -4.418639 -1.266529 0.119655 -6.071698 20.811252 -0.506489 -0.000001 -0.000000 0.000000 1.389220 -0.712568 -7.883960 0.000000 0.000000 0.000000 -14.233987 2.393108 -63.219193 9.867913 -47.596310 5.922670 16.138909 0.892884 18.667042 9.527662 5.320407 -5.445012 -0.082368 0.613089 0.892574 -0.000000 -0.000005 -0.000026 -0.000003 0.000000 -0.000000 -0.878614 -6.976114 -4.318742 0.006559 0.741429 -16.982080 0.000001 -0.000001 0.000002 0.000000 -0.000002 -0.000000 1.935625 9.636921 -15.098084 -0.480069 -1.617964 -22.403401 0.000002 -0.000008 -0.000011 -0.000004 -0.000000 0.000000 2.581126 14.857801 -31.874717 -0.595909 -2.743330 -32.579514 -0.000002 -0.000003 -0.000004 0.000003 -0.000001 0.000000 4.139514 18.469579 -35.515624 -0.714226 -5.797199 -39.900097 0.000005 0.000002 0.000001 0.000000 0.000001 0.000002 1.393274 9.550946 9.804894 0.000000 0.000000 0.000000 1.182789 -24.200776 60.514342 -6.580811 41.627264 8.001256 6.320980 12.185650 11.442671 -8.394746 -4.917734 0.003159 7.849051 -19.207863 -2.938450 0.000002 0.000003 0.000002 -0.000000 0.000000 0.000000 -1.091896 -1.240395 4.212031 0.146037 -1.129841 16.796159 0.000003 0.000001 -0.000004 -0.000002 -0.000001 -0.000001 -0.661697 -2.945909 12.408749 -0.642766 1.787653 30.268096 -0.000003 0.000001 0.000009 0.000001 0.000002 -0.000001 2.436785 -7.454683 21.485140 -0.971957 3.739009 37.070650 -0.000002 0.000001 -0.000001 0.000000 -0.000004 -0.000001 3.502972 -10.091385 24.007362 -1.441688 7.853036 40.767114 -0.000000 -0.000002 0.000005 0.000001 0.000001 -0.000003 -28.123335 5.782383 13.172407 32.819633 -13.195155 0.022307 -2.092650 0.447360 -8.009217 -2.321965 -3.217369 0.803260 0.000000 -0.000001 0.000000 -4.221684 -13.245867 -16.983441 31.833770 -8.490500 -0.566507 -19.527731 -4.347608 18.470134 -1.790352 -0.360816 0.338230 -0.000000 -0.000000 0.000000 
